<svg viewBox="0 0 25 20" xmlns="http://www.w3.org/2000/svg"><path d="M22.054 3.162A5.079 5.079 0 0 0 24.31.37c-.992.578-2.09.998-3.257 1.225a5.161 5.161 0 0 0-3.744-1.595c-2.833 0-5.13 2.261-5.13 5.05 0 .395.046.78.133 1.15A14.637 14.637 0 0 1 1.74.923a4.967 4.967 0 0 0-.694 2.539c0 1.751.905 3.296 2.281 4.202a5.171 5.171 0 0 1-2.323-.631v.063c0 2.447 1.768 4.487 4.114 4.95a5.2 5.2 0 0 1-2.316.088c.653 2.005 2.548 3.465 4.791 3.506a10.392 10.392 0 0 1-6.37 2.161c-.413 0-.822-.024-1.223-.07A14.679 14.679 0 0 0 7.863 20c9.433 0 14.593-7.694 14.593-14.366 0-.219-.005-.437-.015-.654A10.324 10.324 0 0 0 25 2.367c-.92.402-1.909.673-2.946.795z" fill="currentColor"/></svg>
