<svg viewBox="0 0 20 20" xmlns="http://www.w3.org/2000/svg"><path d="M10.003 0C15.516 0 20 4.486 20 10s-4.484 10-9.997 10a9.92 9.92 0 0 1-5.501-1.652L.658 19.576l1.246-3.715A9.927 9.927 0 0 1 0 10C0 4.485 4.484 0 9.997 0zM6.236 4.574c-.382 0-.782.111-1.023.358-.294.3-1.022 1-1.022 2.434s1.046 2.822 1.187 3.016c.147.194 2.04 3.18 4.978 4.398 2.298.952 2.98.864 3.503.752.763-.165 1.722-.73 1.963-1.41.24-.683.24-1.265.17-1.389-.07-.123-.265-.193-.558-.34-.294-.147-1.722-.853-1.993-.947-.264-.1-.517-.065-.717.218-.282.394-.558.793-.781 1.034-.177.188-.465.212-.706.112-.323-.135-1.228-.453-2.345-1.446-.864-.77-1.451-1.729-1.622-2.017-.17-.293-.017-.464.118-.623.147-.182.288-.311.435-.482.147-.17.229-.258.323-.458.1-.194.03-.394-.041-.541-.07-.147-.658-1.582-.9-2.164-.193-.464-.34-.482-.634-.494a5.652 5.652 0 0 0-.335-.011z" fill="currentColor"/></svg>
