<svg viewBox="0 0 28.235 20" xmlns="http://www.w3.org/2000/svg"><path d="M11.202 13.688v-7.99l7.628 4.009zm16.751-9.374s-.276-1.96-1.122-2.822C25.757.359 24.553.353 24 .288 20.052 0 14.125 0 14.125 0h-.012S8.185 0 4.234.288c-.553.065-1.755.07-2.83 1.204C.558 2.355.282 4.314.282 4.314S0 6.615 0 8.916v2.158c0 2.301.282 4.602.282 4.602s.276 1.96 1.122 2.822c1.075 1.133 2.486 1.097 3.114 1.216 2.259.218 9.6.286 9.6.286s5.933-.01 9.884-.297c.551-.067 1.755-.072 2.829-1.205.846-.863 1.122-2.822 1.122-2.822s.282-2.3.282-4.602V8.916c0-2.3-.282-4.602-.282-4.602z" fill="currentColor"/></svg>
